<svg xmlns="http://www.w3.org/2000/svg" width="27" height="19.636" viewBox="0 0 27 19.636">
    <g id="Iconly_Bold_3-User" data-name="Iconly/Bold/3-User" transform="translate(-1 -4)">
      <g id="_3-User" data-name="3-User" transform="translate(1 4)">
        <path id="_3-Friends" data-name="3-Friends" d="M13.437,12.935c4.211,0,7.807.668,7.807,3.339s-3.573,3.362-7.807,3.362c-4.211,0-7.807-.668-7.807-3.338S9.2,12.935,13.437,12.935Zm6.733-1.609a19.089,19.089,0,0,1,3.98.348,3.384,3.384,0,0,1,2.615,1.6,2.36,2.36,0,0,1,0,2.049c-.565,1.226-2.386,1.619-3.093,1.721a.222.222,0,0,1-.248-.252c.361-3.4-2.514-5.007-3.258-5.377a.055.055,0,0,1-.035-.057A.046.046,0,0,1,20.17,11.326Zm-13.643,0,.3,0a.045.045,0,0,1,.038.031.057.057,0,0,1-.034.059c-.745.37-3.621,1.981-3.259,5.376a.222.222,0,0,1-.247.253c-.708-.1-2.529-.5-3.093-1.721a2.352,2.352,0,0,1,0-2.049,3.385,3.385,0,0,1,2.614-1.6,19.2,19.2,0,0,1,3.981-.347ZM13.437,0A5.162,5.162,0,0,1,18.6,5.195a5.166,5.166,0,1,1-10.332,0A5.162,5.162,0,0,1,13.437,0Zm7.013.866a4.388,4.388,0,0,1,4.2,5.54,4.312,4.312,0,0,1-4.326,3.217,4.168,4.168,0,0,1-.593-.057.194.194,0,0,1-.131-.3,7.169,7.169,0,0,0-.1-8.115.127.127,0,0,1-.02-.135.159.159,0,0,1,.1-.061A4.3,4.3,0,0,1,20.451.866Zm-13.9,0a4.321,4.321,0,0,1,.87.09.167.167,0,0,1,.1.061.129.129,0,0,1-.02.135,7.169,7.169,0,0,0-.1,8.115.194.194,0,0,1-.131.3,4.028,4.028,0,0,1-.593.057A4.312,4.312,0,0,1,2.346,6.406,4.387,4.387,0,0,1,6.549.866Z" transform="translate(0 0)" fill="#c3d830"/>
      </g>
    </g>
  </svg>
  