<svg xmlns="http://www.w3.org/2000/svg" width="30.91" height="33.72" viewBox="0 0 30.91 33.72">
    <path id="android-bus" d="M5.625,29.79c0,1.686,1.218,2.154,2.342,3.185v3.372A1.879,1.879,0,0,0,9.84,38.22h1.873a1.879,1.879,0,0,0,1.873-1.873V34.473H28.573v1.873a1.879,1.879,0,0,0,1.873,1.873H32.32a1.879,1.879,0,0,0,1.873-1.873V32.975c1.124-1.03,2.342-1.592,2.342-3.185V11.906c0-6.557-7.212-7.406-15.455-7.406S5.625,5.349,5.625,11.906Zm7.025,1.4a2.81,2.81,0,1,1,2.81-2.81A2.76,2.76,0,0,1,12.65,31.194Zm16.86,0a2.81,2.81,0,1,1,2.81-2.81A2.76,2.76,0,0,1,29.51,31.194Zm2.81-10.77H9.84V11.057H32.32Z" transform="translate(-5.625 -4.5)" fill="#fff"/>
  </svg>
  