<svg xmlns="http://www.w3.org/2000/svg" width="20.986" height="21.06" viewBox="0 0 25.986 26.06">
    <g id="message" transform="translate(-47.25 80.75)">
        <g id="Groupe_423" data-name="Groupe 423" transform="translate(48 -80)">
            <path id="Tracé_2933" data-name="Tracé 2933" d="M16,11h.011" transform="translate(1.139 0.019)" fill="none" stroke="#fff" stroke-linecap="round" stroke-linejoin="round" stroke-width="2" />
            <path id="Tracé_2934" data-name="Tracé 2934" d="M12,11h.011" transform="translate(0.242 0.019)" fill="none" stroke="#fff" stroke-linecap="round" stroke-linejoin="round" stroke-width="2" />
            <path id="Tracé_2935" data-name="Tracé 2935" d="M7.995,11h.011" transform="translate(-0.655 0.019)" fill="none" stroke="#fff" stroke-linecap="round" stroke-linejoin="round" stroke-width="2" />
            <path id="Tracé_2932" data-name="Tracé 2932" d="M9.958,22.813H9.346C4.449,22.813,2,21.589,2,15.467V9.346Q2,2,9.346,2H19.14q7.346,0,7.346,7.346v6.122q0,7.346-7.346,7.346h-.612a1.241,1.241,0,0,0-.979.49l-1.836,2.449a1.74,1.74,0,0,1-2.938,0L10.937,23.3A1.384,1.384,0,0,0,9.958,22.813Z" transform="translate(-2 -2)" fill="none" stroke="#fff" stroke-linecap="round" stroke-linejoin="round" stroke-miterlimit="10" stroke-width="1.5" />
        </g>
    </g>
</svg>
  